<svg width="12" height="13" viewBox="0 0 12 13" fill="none" xmlns="http://www.w3.org/2000/svg">
<path d="M6.72654 8.29766C6.70892 8.28021 6.68512 8.27042 6.66033 8.27042C6.63553 8.27042 6.61174 8.28021 6.59412 8.29766L5.2324 9.65937C4.60193 10.2898 3.53787 10.3566 2.84177 9.65937C2.14451 8.96211 2.2113 7.89922 2.84177 7.26875L4.20349 5.90703C4.23982 5.8707 4.23982 5.81094 4.20349 5.77461L3.73708 5.3082C3.71946 5.29075 3.69567 5.28097 3.67087 5.28097C3.64608 5.28097 3.62228 5.29075 3.60466 5.3082L2.24294 6.66992C1.25154 7.66133 1.25154 9.26562 2.24294 10.2559C3.23435 11.2461 4.83865 11.2473 5.82888 10.2559L7.1906 8.89414C7.22693 8.85781 7.22693 8.79805 7.1906 8.76172L6.72654 8.29766ZM9.75701 2.74297C8.7656 1.75156 7.1613 1.75156 6.17107 2.74297L4.80818 4.10469C4.79073 4.12231 4.78094 4.1461 4.78094 4.1709C4.78094 4.19569 4.79073 4.21949 4.80818 4.23711L5.27341 4.70234C5.30974 4.73867 5.36951 4.73867 5.40584 4.70234L6.76755 3.34062C7.39802 2.71015 8.46208 2.64336 9.15818 3.34062C9.85544 4.03789 9.78865 5.10078 9.15818 5.73125L7.79646 7.09297C7.77901 7.11059 7.76923 7.13438 7.76923 7.15918C7.76923 7.18398 7.77901 7.20777 7.79646 7.22539L8.26287 7.6918C8.29919 7.72812 8.35896 7.72812 8.39529 7.6918L9.75701 6.33008C10.7472 5.33867 10.7472 3.73437 9.75701 2.74297V2.74297ZM7.14958 4.86289C7.13196 4.84544 7.10817 4.83565 7.08337 4.83565C7.05858 4.83565 7.03478 4.84544 7.01716 4.86289L4.36287 7.51601C4.34542 7.53363 4.33563 7.55743 4.33563 7.58223C4.33563 7.60702 4.34542 7.63082 4.36287 7.64844L4.82693 8.1125C4.86326 8.14883 4.92302 8.14883 4.95935 8.1125L7.61248 5.45937C7.6488 5.42305 7.6488 5.36328 7.61248 5.32695L7.14958 4.86289Z" fill="#AF48FF"/>
</svg>
